# xmcd
#
# Track frame offsets:
#	150
#	19702
#	39769
#	62896
#	89980
#	113572
#	141454
#	161676
#	183559
#
# Disc length: 2782 seconds
#
# Revision: 0
# Processed by: cddbd v1.5.1PL2 Copyright (c) Steve Scherf et al.
# Submitted via: SynApp - FreeCDDB Version: 2.2
#
DISCID=7b0adc09
DTITLE=Blowing Bullfrog - Blowing Bullfrog - Born under a bad sign
DYEAR=2003
DGENRE=Blues
TTITLE0=Loving man
TTITLE1=Somebody call
TTITLE2=A man's world
TTITLE3=Sunny Day
TTITLE4=Born under a bad sign
TTITLE5=Someone's gonna wait for me
TTITLE6=Hideaway
TTITLE7=Cotton mouth
TTITLE8=Lonely man
EXTD=
EXTT0=
EXTT1=
EXTT2=
EXTT3=
EXTT4=
EXTT5=
EXTT6=
EXTT7=
EXTT8=
PLAYORDER=
